<svg xmlns="http://www.w3.org/2000/svg" xmlns:xlink="http://www.w3.org/1999/xlink" width="536" height="501" viewBox="0 0 536 501"><defs><clipPath id="a"><rect width="536" height="501" rx="8" transform="translate(139 1139)" fill="#eef3ff"/></clipPath><clipPath id="b"><rect width="92" height="92" transform="translate(555 1161)" fill="#8e99b5"/></clipPath></defs><g transform="translate(-139 -1139)" clip-path="url(#a)"><circle cx="115" cy="115" r="115" transform="translate(486 1092)" fill="#fff"/><g transform="translate(462 1068)" fill="none" stroke="#456fd1" stroke-width="1" stroke-dasharray="4"><circle cx="139" cy="139" r="139" stroke="none"/><circle cx="139" cy="139" r="138.5" fill="none"/></g><g clip-path="url(#b)"><g transform="translate(533.304 1140.134)"><path d="M74.536,20.883a2.444,2.444,0,0,1,1.3,2.261c.18,3.4.449,6.8.687,10.259H81.2c0-1.493-.017-2.979,0-4.465a19.712,19.712,0,0,1,.154-3.039,5.281,5.281,0,0,1,5.074-4.3c1.2-.034,2.4-.024,3.6,0a1.779,1.779,0,0,1,1.956,1.951c.024,2.036.022,4.081.031,6.107,0,.024.024.05.1.2H93.8a5.388,5.388,0,1,1,.022,10.776c-.566.011-1.135,0-1.841,0v6.1c0,1.5-.643,2.146-2.117,2.16H86.725A5.41,5.41,0,0,1,81.2,43.375c-.024-2.064,0-4.129,0-6.265h-4.5c1.666,24.116,4.758,48.063,6.947,72.165.535,0,.96-.024,1.361,0a1.793,1.793,0,0,1,1.731,1.819,1.743,1.743,0,0,1-1.712,1.743q-5.475.046-10.957,0a1.733,1.733,0,0,1-1.68-1.759,1.8,1.8,0,0,1,1.747-1.8c.358-.026.72,0,1.227,0a3.538,3.538,0,0,0-.427-.389c-2.23-1.342-4.46-2.684-6.7-4a.954.954,0,0,0-.785-.13c-2.448,1.423-4.873,2.88-7.273,4.517.338,0,.679-.014,1.018,0a1.807,1.807,0,0,1,1.839,1.805,1.759,1.759,0,0,1-1.779,1.769q-5.391.041-10.778,0a1.767,1.767,0,0,1-1.8-1.747,1.8,1.8,0,0,1,1.817-1.827c.382-.019.766,0,1.275,0,2.189-24.1,5.281-48.041,6.961-72.184H54.215c0,2.026.043,4.023-.022,6.015a7.518,7.518,0,0,1-.48,2.53,4.93,4.93,0,0,1-4.222,3.195,29.733,29.733,0,0,1-4.484.034,1.688,1.688,0,0,1-1.572-1.853c-.022-1.767,0-3.533,0-5.3V40.638H41.594a5.388,5.388,0,1,1,.019-10.776h1.822V28.324c0-1.618-.014-3.236,0-4.851A1.73,1.73,0,0,1,45.2,21.618c1.344-.034,2.7-.07,4.04.014a5.362,5.362,0,0,1,4.954,5.42c.034,2.093,0,4.186,0,6.347h4.674c.113-1.522.24-3.063.338-4.6.13-1.851.3-3.7.35-5.554a2.51,2.51,0,0,1,1.306-2.355ZM58.809,95.04c2.964,1.774,5.775,3.469,8.61,5.122a1.112,1.112,0,0,0,.876-.137c1.6-.927,3.19-1.889,4.779-2.842l3.565-2.148c-2.972-1.534-5.8-3-8.641-4.438a.96.96,0,0,0-.732.091C64.481,92.1,61.723,93.53,58.809,95.04ZM47.093,25.249v20.06h.862c2.16,0,2.664-.5,2.664-2.621,0-4.784-.07-9.573.026-14.357C50.705,25.357,49.726,24.964,47.093,25.249Zm41.241,20V25.187h-.864c-2.16,0-2.662.494-2.662,2.619,0,4.786.072,9.575-.026,14.359C84.706,45.211,85.767,45.513,88.333,45.244ZM60.225,82.513c2.5,1.294,4.818,2.513,7.16,3.682a1.189,1.189,0,0,0,.9-.118c2.108-1.059,4.2-2.16,6.294-3.236a4.543,4.543,0,0,0,.516-.384c-2.388-1.2-4.676-2.362-6.978-3.495a.946.946,0,0,0-.739-.029C65.05,80.076,62.738,81.25,60.225,82.513Zm-4.741,25.18,8.728-5.221L56.5,97.861C56.154,101.183,55.828,104.346,55.484,107.692Zm23.435-9.827-7.7,4.611,8.713,5.2C79.589,104.346,79.262,101.175,78.919,97.865ZM73.482,61.512c-1.9-1.335-3.625-2.566-5.382-3.742a1.024,1.024,0,0,0-.9.091c-1.587,1.061-3.14,2.16-4.71,3.257a4.512,4.512,0,0,1-.72.3c2.064,1.037,3.764,1.9,5.478,2.739a.987.987,0,0,0,.737.089C69.776,63.384,71.548,62.482,73.482,61.512Zm-5.72-29.347-4.614,5.041,4.491,3.6,4.63-3.757ZM61.449,71.581c1.755.881,3.38,1.632,4.935,2.506a2.352,2.352,0,0,0,2.626.019c1.56-.9,3.2-1.639,4.825-2.456-.106-.139-.13-.206-.178-.24A34.772,34.772,0,0,1,70,69.531a3.648,3.648,0,0,0-4.549,0A36.148,36.148,0,0,1,61.449,71.581ZM72.793,49.527l-5.142-4.109-5.041,4.1c1.635,1.147,3.19,2.252,4.77,3.32a.759.759,0,0,0,.689-.022c1.563-1.054,3.094-2.141,4.729-3.284Zm-9,38.886-6.018-3.1c-.228,2.252-.439,4.333-.665,6.555Zm13.833-3.1-6,3.1L78.3,91.86c-.218-2.244-.437-4.34-.665-6.546Zm-19.251-5.91L63.7,76.74l-4.8-2.4c-.168,1.7-.331,3.3-.518,5.065ZM76.5,74.342l-4.77,2.4,5.3,2.652c-.178-1.764-.343-3.353-.521-5.055Zm15.5-37.29c1.234-.094,2.528.389,3.322-.912a1.635,1.635,0,0,0-.161-2.009c-.886-1.056-2.06-.571-3.161-.679ZM43.387,33.427c-1.186.146-2.477-.389-3.291.907a1.632,1.632,0,0,0,.079,1.939c.864,1.15,2.079.691,3.212.747ZM60.571,58.089l4-2.813-3.476-2.424C60.916,54.659,60.756,56.257,60.571,58.089Zm13.742-5.228-3.459,2.427,3.992,2.792c-.194-1.834-.35-3.447-.533-5.228Zm-14.4,11.656c-.134,1.392-.257,2.64-.391,4.018l4.189-2.1Zm11.831,1.92,4.181,2.1c-.146-1.4-.276-2.64-.415-4Zm1.976-20.763c-.108-1.731-.2-3.214-.3-4.894l-2.88,2.331Zm-8.4-16.147-2.379-2.542c-.12,1.92-.223,3.579-.343,5.521Zm-3.6,16.109,3.08-2.5-2.782-2.218c-.113,1.611-.2,3.029-.307,4.69Zm10.9-13.519.2-.094c-.1-1.587-.206-3.173-.324-5l-2.295,2.5Zm-2.77-7.59H65.588l2.16,2.319Z" fill="#8e99b5"/><path d="M107.236,20.883A18.723,18.723,0,0,1,113.609,37a18.7,18.7,0,0,1-5.636,12,1.748,1.748,0,0,1-2.28.372,1.723,1.723,0,0,1-.783-2.014,2.78,2.78,0,0,1,.614-.96c6.135-6.594,6.147-15.7.017-22.235-1.1-1.174-.975-2.12.437-3.272Z" fill="#8e99b5"/><path d="M29.438,20.883c1.51,1.236,1.555,2.079.187,3.529a15.768,15.768,0,0,0,.014,21.7c.122.13.24.254.372.386a1.829,1.829,0,0,1,.077,2.58,1.779,1.779,0,0,1-2.64-.077,19.177,19.177,0,0,1-5.557-11.1c-.041-.29-.12-.574-.18-.859v-3.6c.06-.286.137-.569.18-.857A18.845,18.845,0,0,1,28.18,20.866Z" fill="#8e99b5"/><path d="M28.939,35.206a12.307,12.307,0,0,1,3.6-8.641,1.565,1.565,0,0,1,1.851-.542c.523.276,1.169.85,1.224,1.351a2.8,2.8,0,0,1-.72,1.884,9.219,9.219,0,0,0-2.278,4.974,8.578,8.578,0,0,0,2.067,6.743c.192.24.413.437.6.672a1.755,1.755,0,0,1-.115,2.436,1.7,1.7,0,0,1-2.492-.029,15.388,15.388,0,0,1-1.855-2.3A12.2,12.2,0,0,1,28.939,35.206Z" fill="#8e99b5"/><path d="M106.478,35.221a12.373,12.373,0,0,1-3.423,8.538c-.912.96-1.944,1.095-2.76.36s-.79-1.781.084-2.772c3.361-3.8,3.346-8.38-.026-12.225a1.825,1.825,0,0,1-.1-2.71,1.855,1.855,0,0,1,2.763.286A12.468,12.468,0,0,1,106.478,35.221Z" fill="#8e99b5"/></g></g></g></svg>