<svg xmlns="http://www.w3.org/2000/svg" xmlns:xlink="http://www.w3.org/1999/xlink" width="11" height="11" viewBox="0 0 11 11"><defs><clipPath id="a"><rect width="11" height="11" transform="translate(139 18.5)" fill="#8e99b5"/></clipPath></defs><g transform="translate(-139 -18.5)" clip-path="url(#a)"><path d="M6.113.815A4.483,4.483,0,0,0,1.63,5.3c0,2.948,2.915,4.359,3.28,4.688A3.786,3.786,0,0,1,5.715,11.5a.408.408,0,0,0,.8,0,3.788,3.788,0,0,1,.805-1.514c.365-.328,3.28-1.74,3.28-4.688A4.483,4.483,0,0,0,6.113.815Zm0,5.705A1.223,1.223,0,1,1,7.335,5.3,1.222,1.222,0,0,1,6.113,6.52Z" transform="translate(138.387 17.685)" fill="#8e99b5"/></g></svg>