<svg xmlns="http://www.w3.org/2000/svg" xmlns:xlink="http://www.w3.org/1999/xlink" width="28" height="28" viewBox="0 0 28 28"><defs><clipPath id="a"><rect width="28" height="28" transform="translate(302 512)" fill="#fff" stroke="#707070" stroke-width="1"/></clipPath></defs><g transform="translate(-302 -512)" clip-path="url(#a)"><path d="M15.56,2.075a11.411,11.411,0,0,0-11.41,11.41c0,7.5,7.419,11.1,8.348,11.932a9.636,9.636,0,0,1,2.05,3.853,1.039,1.039,0,0,0,2.025,0,9.643,9.643,0,0,1,2.05-3.853c.929-.836,8.348-4.428,8.348-11.932A11.411,11.411,0,0,0,15.56,2.075Zm0,14.522a3.112,3.112,0,1,1,3.112-3.112A3.112,3.112,0,0,1,15.56,16.6Z" transform="translate(300.44 509.925)" fill="#fff"/></g></svg>