<svg xmlns="http://www.w3.org/2000/svg" xmlns:xlink="http://www.w3.org/1999/xlink" width="11" height="11" viewBox="0 0 11 11"><defs><clipPath id="a"><rect width="11" height="11" transform="translate(139 18.5)" fill="#8e99b5"/></clipPath></defs><g transform="translate(-139 -18.5)" clip-path="url(#a)"><path d="M9.61,7.738c-.664-.568-1.34-.914-2-.345l-.392.342c-.287.25-.82,1.414-2.881-.959s-.835-2.737-.547-2.983l.394-.344c.652-.568.406-1.284-.065-2.022L3.84.981C3.367.246,2.851-.236,2.2.33l-.354.31a3.313,3.313,0,0,0-1.294,2.2c-.236,1.561.51,3.35,2.215,5.312S6.137,11.1,7.717,11.082a3.336,3.336,0,0,0,2.356-.976l.354-.31c.654-.567.248-1.145-.418-1.714Z" transform="translate(138.868 18.418)" fill="#8e99b5"/></g></svg>