<svg xmlns="http://www.w3.org/2000/svg" xmlns:xlink="http://www.w3.org/1999/xlink" width="16" height="16" viewBox="0 0 16 16"><defs><clipPath id="a"><rect width="16" height="16" transform="translate(308 3645)" fill="#1f3d85"/></clipPath></defs><g transform="translate(-308 -3645)" clip-path="url(#a)"><path d="M6.94,3.786a.632.632,0,0,0-.227.049A6.872,6.872,0,0,0,4.361,5.669a10.438,10.438,0,0,0-2.256,6.962.632.632,0,0,0,.007.092A3.573,3.573,0,1,0,3.667,9.887a7.937,7.937,0,0,1,1.656-3.4A5.286,5.286,0,0,1,7.182,5.007.632.632,0,0,0,6.94,3.786Zm8.842,0a.632.632,0,0,0-.227.049A6.872,6.872,0,0,0,13.2,5.669a10.438,10.438,0,0,0-2.256,6.962.632.632,0,0,0,.007.092,3.573,3.573,0,1,0,1.555-2.837,7.936,7.936,0,0,1,1.656-3.4,5.286,5.286,0,0,1,1.859-1.481.632.632,0,0,0-.242-1.221Z" transform="translate(305.895 3642.896)" fill="#1f3d85"/></g></svg>