<svg xmlns="http://www.w3.org/2000/svg" xmlns:xlink="http://www.w3.org/1999/xlink" width="24" height="24" viewBox="0 0 24 24"><defs><clipPath id="a"><rect width="10" height="10" transform="translate(238 819)" fill="#fff"/></clipPath></defs><g transform="translate(-231 -812)"><rect width="24" height="24" rx="4" transform="translate(231 812)" fill="#456fd1"/><g clip-path="url(#a)"><g transform="translate(236 816.929)"><path d="M11.5,4.879a.185.185,0,0,1-.041-.117c-.4-.707-.426-1.572-.827-2.279a8.941,8.941,0,0,0-2.64,2.794A18.664,18.664,0,0,0,6.784,7.2c-.369.672-.726,1.352-1.138,2-.06.092-.214.136-.279.019A7.565,7.565,0,0,0,4.7,8.188c-.217-.279-.463-.529-.686-.8a5.288,5.288,0,0,0-1.19-1.231,12.266,12.266,0,0,0-.466,1.724,7.327,7.327,0,0,1,1.667,1.67,26.818,26.818,0,0,0,1.813,2.068A16.811,16.811,0,0,0,6.89,9.847,16.333,16.333,0,0,1,8.283,7.879a16.9,16.9,0,0,1,1.68-1.732c.276-.257.6-.469.9-.7.222-.179.439-.363.642-.561C11.5,4.884,11.5,4.881,11.5,4.879Z" fill="#fff"/><path d="M11.823,4.616h-.076c-.442-.751-.439-1.7-.922-2.437a.163.163,0,0,0-.225-.043,8.7,8.7,0,0,0-2.851,2.93A19.682,19.682,0,0,0,6.518,7.017c-.333.6-.653,1.214-1.014,1.805a7.38,7.38,0,0,0-.539-.81c-.222-.293-.482-.55-.713-.835A4.7,4.7,0,0,0,2.8,5.781a.164.164,0,0,0-.23.114A15.605,15.605,0,0,0,2.038,7.83v.011a.171.171,0,0,0,.043.255A6.837,6.837,0,0,1,3.841,9.847a25.058,25.058,0,0,0,1.9,2.144.162.162,0,0,0,.228-.014A11.933,11.933,0,0,0,7.1,10.129,13.548,13.548,0,0,1,8.489,8.145,19.127,19.127,0,0,1,10.167,6.41c.282-.263.613-.48.916-.721a8.939,8.939,0,0,0,.7-.618.153.153,0,0,0,.125-.127l.049-.051A.168.168,0,0,0,11.823,4.616Zm-.962.832c-.3.236-.618.447-.9.7a16.352,16.352,0,0,0-1.68,1.732A16.122,16.122,0,0,0,6.89,9.852a16.811,16.811,0,0,1-1.052,1.77A25.772,25.772,0,0,1,4.025,9.554a7.327,7.327,0,0,0-1.667-1.67,12.267,12.267,0,0,1,.466-1.724,5.234,5.234,0,0,1,1.19,1.231c.222.274.469.523.686.8a7.565,7.565,0,0,1,.667,1.035c.065.119.22.073.279-.019.415-.648.77-1.328,1.138-2A18.664,18.664,0,0,1,7.993,5.283a8.943,8.943,0,0,1,2.64-2.794c.4.707.426,1.572.827,2.279a.185.185,0,0,0,.041.117.009.009,0,0,0,0,.005C11.3,5.085,11.083,5.269,10.86,5.448Z" fill="#fff"/></g></g></g></svg>