<svg xmlns="http://www.w3.org/2000/svg" xmlns:xlink="http://www.w3.org/1999/xlink" width="103" height="103" viewBox="0 0 103 103"><defs><clipPath id="a"><rect width="28" height="28" transform="translate(302 512)" fill="#fff" stroke="#707070" stroke-width="1"/></clipPath></defs><g transform="translate(-264 -474)"><circle cx="51.5" cy="51.5" r="51.5" transform="translate(264 474)" fill="#1f3d85"/><g clip-path="url(#a)"><path d="M24.461,19.7c-1.69-1.447-3.41-2.326-5.079-.879l-1,.871c-.73.636-2.087,3.6-7.333-2.441S8.925,10.282,9.659,9.655l1-.875c1.66-1.447,1.033-3.269-.166-5.147L9.774,2.5C8.57.627,7.256-.6,5.591.841l-.9.79A8.432,8.432,0,0,0,1.4,7.222c-.6,3.974,1.3,8.528,5.638,13.522s8.588,7.508,12.608,7.465a8.492,8.492,0,0,0,6-2.484l.9-.79c1.665-1.443.632-2.915-1.063-4.362Z" transform="translate(301.665 511.791)" fill="#fff"/></g></g></svg>