<svg xmlns="http://www.w3.org/2000/svg" xmlns:xlink="http://www.w3.org/1999/xlink" width="12" height="12" viewBox="0 0 12 12"><defs><clipPath id="a"><rect width="12" height="12" transform="translate(0 5)" fill="#d7e3ff"/></clipPath></defs><g transform="translate(0 -5)" clip-path="url(#a)"><path d="M7.2,1.2a6,6,0,1,0,6,6A6.009,6.009,0,0,0,7.2,1.2Zm0,1.2a.752.752,0,0,1,.52.259,3.1,3.1,0,0,1,.628.967A6.927,6.927,0,0,1,8.721,4.8H5.679a6.924,6.924,0,0,1,.373-1.174,3.1,3.1,0,0,1,.628-.967A.752.752,0,0,1,7.2,2.4Zm-2.129.5c-.039.079-.079.156-.116.238A8.291,8.291,0,0,0,4.443,4.8h-1.4A4.794,4.794,0,0,1,5.071,2.9Zm4.259,0a4.794,4.794,0,0,1,2.027,1.9h-1.4a8.29,8.29,0,0,0-.512-1.662C9.409,3.056,9.368,2.979,9.329,2.9ZM2.557,6h1.7c-.037.388-.059.788-.059,1.2s.022.812.059,1.2h-1.7a4.664,4.664,0,0,1,0-2.4ZM5.47,6H8.93A11.085,11.085,0,0,1,9,7.2a11.085,11.085,0,0,1-.07,1.2H5.47A11.083,11.083,0,0,1,5.4,7.2,11.083,11.083,0,0,1,5.47,6Zm4.671,0h1.7a4.664,4.664,0,0,1,0,2.4h-1.7c.037-.388.059-.788.059-1.2S10.178,6.388,10.141,6Zm-7.1,3.6h1.4a8.29,8.29,0,0,0,.512,1.662c.037.082.077.159.116.238A4.794,4.794,0,0,1,3.043,9.6Zm2.636,0H8.721a6.926,6.926,0,0,1-.373,1.174,3.1,3.1,0,0,1-.628.967A.751.751,0,0,1,7.2,12a.751.751,0,0,1-.52-.259,3.1,3.1,0,0,1-.628-.967A6.923,6.923,0,0,1,5.679,9.6Zm4.279,0h1.4a4.794,4.794,0,0,1-2.027,1.9c.039-.079.079-.156.116-.238A8.289,8.289,0,0,0,9.957,9.6Z" transform="translate(-1.2 3.8)" fill="#d7e3ff"/></g></svg>