<svg xmlns="http://www.w3.org/2000/svg" xmlns:xlink="http://www.w3.org/1999/xlink" width="536" height="501" viewBox="0 0 536 501"><defs><clipPath id="a"><rect width="536" height="501" rx="8" transform="translate(139 1139)" fill="#eef3ff"/></clipPath><clipPath id="b"><rect width="92" height="92" transform="translate(555 1161)" fill="#8e99b5"/></clipPath></defs><g transform="translate(-139 -1139)" clip-path="url(#a)"><circle cx="115" cy="115" r="115" transform="translate(486 1092)" fill="#fff"/><g transform="translate(462 1068)" fill="none" stroke="#456fd1" stroke-width="1" stroke-dasharray="4"><circle cx="139" cy="139" r="139" stroke="none"/><circle cx="139" cy="139" r="138.5" fill="none"/></g><g clip-path="url(#b)"><g transform="translate(530.544 1145.326)"><path d="M49.695,98.427c.74,2.415,1.455,4.722,2.155,7.036.458,1.514-.059,2.211-1.641,2.211H33.284c-1.45,0-1.833-.311-2.008-1.734q-1.133-9.18-2.24-18.355-.763-6.267-1.527-12.54a11.017,11.017,0,0,1-.112-1.288,1.353,1.353,0,0,1,1.378-1.5q5.975-.043,11.947,0c.822,0,1.2.6,1.413,1.33.394,1.33.8,2.66,1.3,4.3a35.747,35.747,0,0,0,3.458-2.525,18.373,18.373,0,0,1,9.164-4.9A17.291,17.291,0,0,1,67.38,71.953a17.7,17.7,0,0,0,6.8,1.554,17.492,17.492,0,0,0,11.354-2.87c2.926-1.913,6.023-1.716,9,.173a1.131,1.131,0,0,0,.958.053,6.067,6.067,0,0,1,7.183.963,1.114,1.114,0,0,0,1.386.181,7.31,7.31,0,0,1,9,2.509c.708,1.04.609,1.742-.41,2.445-8.417,5.789-16.794,11.633-25.272,17.315a14.771,14.771,0,0,1-9.627,2.253c-3.259-.29-6.486-.95-9.715-1.5-2.844-.481-5.666-1.1-8.513-1.511a4.286,4.286,0,0,0-2.567.407C54.5,95.317,52.14,96.881,49.695,98.427Zm60.37-23.074a4.486,4.486,0,0,0-5.376-.583C100.5,77,96.339,79.26,92.173,81.519a1.256,1.256,0,0,0-.588.58c-.46,1.383-.6,1.511-2.016,1.468-.6-.016-1.194-.064-1.79-.085-4.44-.162-8.877-.62-13.314.045a1.382,1.382,0,0,1-1.71-1.24,1.3,1.3,0,0,1,1.359-1.5c3.11-.136,6.222-.218,9.335-.287,1.676-.037,3.354,0,5.012,0a5.7,5.7,0,0,0-5.517-4.272c-2.455-.037-4.913-.1-7.366,0a22.245,22.245,0,0,1-10.109-2.048c-5.693-2.49-11.093-1.58-15.849,2.5-1.665,1.423-3.253,2.926-5.461,3.61,1.567,5.139,3.11,10.191,4.687,15.368,2.072-1.306,4.046-2.509,5.98-3.777a7.563,7.563,0,0,1,5.794-1.064c5.11.976,10.218,1.992,15.36,2.78a14.748,14.748,0,0,0,11.077-2.442c4.536-3.179,9.127-6.275,13.692-9.412,3.1-2.1,6.177-4.232,9.319-6.392ZM33.957,104.8H48.751c-2.99-9.789-5.954-19.478-8.89-29.172-.165-.548-.45-.617-.928-.615-2.66.016-5.307,0-7.959,0a4.788,4.788,0,0,0-.633.1C31.547,85.03,32.75,94.894,33.957,104.8ZM91.026,78.962l9.638-5.211a3.335,3.335,0,0,0-3.852-.436c-1.327.742-2.74,1.479-4.11,2.219l-2.756,1.5Zm-5.472-5.2c.721.38,1.349.729,2,1.043a.676.676,0,0,0,.532.021c1.3-.678,2.586-1.383,4.036-2.165C89.571,71.538,87.581,72.45,85.554,73.767Z" fill="#8e99b5"/><path d="M89.694,25.708a13.342,13.342,0,0,1-.748,1.224c-.646.838-1.724,1.58-1.886,2.493-.149.838.83,1.817,1.022,2.791.3,1.543,1.2,1.891,2.61,1.977,3.051.186,3.049.266,3.049,3.357v4.28c-.013,1.152-.455,1.612-1.6,1.729-1.064.106-2.325-.1-3.1.426-.71.479-.769,1.83-1.33,2.647-.91,1.33-.519,2.219.46,3.309,1.99,2.224,1.926,2.28-.186,4.392-1.032,1.032-2.054,2.075-3.1,3.094a1.465,1.465,0,0,1-2.346.1c-.851-.686-1.625-1.785-2.567-1.955-.862-.154-1.862.865-2.878,1.064-1.556.29-1.806,1.24-1.875,2.572-.165,3.075-.215,3.075-3.251,3.075H67.59c-1.163,0-1.623-.439-1.74-1.577-.1-.955-.146-1.921-.317-2.865a1.309,1.309,0,0,0-.66-.8c-1.064-.513-2.171-.982-3.288-1.389a1.269,1.269,0,0,0-1.016.13c-.8.58-1.546,1.253-2.317,1.881a1.377,1.377,0,0,1-2.043-.088Q54,55.39,51.842,53.2a1.414,1.414,0,0,1-.051-2.128c.607-.732,1.117-1.4,1.724-2.059a1.05,1.05,0,0,0,.184-1.4A20.377,20.377,0,0,1,52.432,44.6a1.032,1.032,0,0,0-1.064-.814c-.891-.059-1.782-.149-2.673-.237-1.088-.106-1.543-.577-1.551-1.668-.016-1.99,0-3.99,0-5.972a1.419,1.419,0,0,1,1.4-1.6c.95-.1,1.987-.162,2.963-.33a1.272,1.272,0,0,0,.825-.6c.532-1.1,1.006-2.232,1.436-3.376a1.155,1.155,0,0,0-.106-.934c-.532-.753-1.168-1.444-1.753-2.163-.8-.982-.8-1.54.077-2.418q1.99-2.019,4.012-4.012c.9-.891,1.5-.9,2.5-.08.694.567,1.351,1.184,2.083,1.692A1.274,1.274,0,0,0,61.6,22.2c1.12-.4,2.221-.862,3.293-1.373a1.33,1.33,0,0,0,.646-.819c.165-.91.21-1.841.3-2.767.114-1.12.532-1.551,1.636-1.559q2.99-.021,5.972,0c1.064,0,1.482.37,1.628,1.458.128.952.165,1.918.335,2.862a1.293,1.293,0,0,0,.628.8c1.064.516,2.171.982,3.288,1.394a1.264,1.264,0,0,0,1.016-.106c.8-.575,1.551-1.245,2.32-1.862a1.415,1.415,0,0,1,2.128.117c1.4,1.413,2.812,2.82,4.192,4.256a6.9,6.9,0,0,1,.7,1.107ZM72.4,59.492c.12-1.165.239-2.245.343-3.325a1.682,1.682,0,0,1,1.33-1.506c1.671-.609,3.315-1.309,4.916-2.08a1.768,1.768,0,0,1,2.181.2c.769.673,1.572,1.3,2.365,1.958l2.7-2.785c-.588-.716-1.186-1.511-1.862-2.24A1.854,1.854,0,0,1,84.2,47.29a36.137,36.137,0,0,0,1.947-4.65,1.835,1.835,0,0,1,1.83-1.479c1.011-.045,1.953-.192,2.894-.29V36.977c-1.12-.12-2.173-.253-3.229-.341-.851-.072-1.221-.551-1.511-1.33-.617-1.668-1.306-3.315-2.075-4.919a1.763,1.763,0,0,1,.194-2.179c.673-.769,1.306-1.572,1.886-2.274-.923-.95-1.785-1.838-2.681-2.767-.771.636-1.575,1.274-2.352,1.945a1.692,1.692,0,0,1-2.086.173c-1.6-.769-3.256-1.45-4.924-2.064a1.742,1.742,0,0,1-1.381-1.6c-.082-1.043-.21-2.086-.317-3.112H68.521c-.1,1.008-.221,1.961-.266,2.913A1.81,1.81,0,0,1,66.837,23.2a51.408,51.408,0,0,0-4.919,2.07A1.69,1.69,0,0,1,59.83,25.1c-.8-.686-1.62-1.33-2.314-1.907l-2.844,2.66c.668.8,1.309,1.6,1.979,2.394a1.773,1.773,0,0,1,.157,2.184,47.192,47.192,0,0,0-2.04,4.828,1.771,1.771,0,0,1-1.663,1.41c-1.043.077-2.08.218-3.091.327v3.879c1.085.106,2.1.221,3.123.3a1.731,1.731,0,0,1,1.609,1.351c.609,1.671,1.3,3.323,2.07,4.921a1.758,1.758,0,0,1-.184,2.179c-.67.774-1.309,1.577-1.942,2.346l2.751,2.743c.732-.6,1.511-1.213,2.251-1.862a1.864,1.864,0,0,1,2.344-.21,35.777,35.777,0,0,0,4.735,1.99,1.853,1.853,0,0,1,1.476,1.833c.061.979.184,1.963.285,3.025H72.4Z" fill="#8e99b5"/><path d="M36.977,100.667a3.777,3.777,0,1,1,3.769,3.785A3.777,3.777,0,0,1,36.977,100.667Zm5.169.024c-.609-.466-.928-.878-1.33-.968a.774.774,0,0,0-1.008.878,1.487,1.487,0,0,0,.955.971c.325.064.737-.439,1.391-.881Z" fill="#8e99b5"/><path d="M70.194,52.834A13.911,13.911,0,1,1,84.355,39.57,13.951,13.951,0,0,1,70.194,52.834Zm.325-25.024a11.1,11.1,0,1,0,.013,0Z" fill="#8e99b5"/><path d="M69.3,40.448c1.705-1.862,3.386-3.724,5.139-5.525a2.075,2.075,0,0,1,1.463-.561,1.407,1.407,0,0,1,1.006.9,1.958,1.958,0,0,1-.439,1.492c-1.41,1.49-2.926,2.889-4.384,4.323-.686.67-1.354,1.359-2.062,2.008a1.369,1.369,0,0,1-2.112,0q-1.8-1.705-3.546-3.474a1.358,1.358,0,0,1-.093-2.024,1.344,1.344,0,0,1,2.024.067c.838.846,1.6,1.769,2.394,2.66Z" fill="#8e99b5"/></g></g></g></svg>