<svg xmlns="http://www.w3.org/2000/svg" width="30" height="30" viewBox="0 0 30 30">
  <g id="_atout-machine-a-laver" transform="translate(4445 7843)">
    <rect id="Rectangle_1367" data-name="Rectangle 1367" width="30" height="30" transform="translate(-4445 -7843)" fill="none"/>
    <g id="icone-machine-laver" transform="translate(-4479.163 -8657.874)">
      <path id="Tracé_27955" data-name="Tracé 27955" d="M58.125,816.874H40.343a2.189,2.189,0,0,0-2.18,2.181V840.4a2.189,2.189,0,0,0,2.183,2.181H58.125a2.186,2.186,0,0,0,2.181-2.181V819.055A2.186,2.186,0,0,0,58.125,816.874Zm0,24.9H40.344a1.378,1.378,0,0,1-1.375-1.374V823.98H59.5V840.4A1.377,1.377,0,0,1,58.125,841.77ZM59.5,819.055v4.117H38.97v-4.117a1.378,1.378,0,0,1,1.374-1.374H58.125A1.377,1.377,0,0,1,59.5,819.055Z" transform="translate(0)" fill="#00b28e"/>
      <path id="Tracé_27956" data-name="Tracé 27956" d="M49.4,827.126h-.018a6.194,6.194,0,1,0,.018,0Zm-2.987,8.462.051-.057c.006-.009.541-.894,1.236-.928.426-.016.895.3,1.37.964a2.44,2.44,0,0,0,1.705.96h.064a2.321,2.321,0,0,0,1.765-1c.91-1.106,1.663-1.2,2.059-1.138a5.368,5.368,0,0,1-5.264,4.291h-.109l0,0a5.407,5.407,0,0,1-4.547-2.7A2.2,2.2,0,0,0,46.409,835.588Zm8.353-1.993c-.618-.091-1.655.044-2.8,1.437a1.582,1.582,0,0,1-1.151.692,1.644,1.644,0,0,1-1.076-.61,2.507,2.507,0,0,0-2.1-1.31,2.577,2.577,0,0,0-1.808,1.249c-.229.245-.921.169-1.519-.035a5.373,5.373,0,1,1,10.467-1.706C54.77,833.406,54.767,833.5,54.762,833.6Z" transform="translate(-0.159 -0.323)" fill="#00b28e"/>
      <path id="Tracé_27957" data-name="Tracé 27957" d="M49.332,825.178h-.012a8.083,8.083,0,0,0-.012,16.165h.013a8.083,8.083,0,0,0,.011-16.165Zm7.264,8.044a7.329,7.329,0,0,1-2.132,5.161,7.219,7.219,0,0,1-5.134,2.132h-.014a7.279,7.279,0,0,1-.013-14.558h.014a7.279,7.279,0,0,1,7.278,7.265Z" transform="translate(-0.097 -0.262)" fill="#00b28e"/>
      <path id="Tracé_27958" data-name="Tracé 27958" d="M44.7,819.017H40.556a.4.4,0,0,0-.4.4v1.7a.4.4,0,0,0,.4.4h4.15a.4.4,0,0,0,.4-.4v-1.7A.4.4,0,0,0,44.7,819.017Zm-.406.8v.9H40.957v-.9Z" transform="translate(-0.063 -0.068)" fill="#00b28e"/>
      <path id="Tracé_27959" data-name="Tracé 27959" d="M57.285,818.548h0a1.7,1.7,0,0,0-1.2,2.91,1.689,1.689,0,0,0,1.2.5h0a1.7,1.7,0,0,0,0-3.409Zm.895,1.709a.9.9,0,0,1-.893.9h0a.9.9,0,0,1-.635-1.531.888.888,0,0,1,.63-.262h0a.9.9,0,0,1,.635.26A.889.889,0,0,1,58.18,820.257Z" transform="translate(-0.549 -0.053)" fill="#00b28e"/>
    </g>
  </g>
</svg>
