<svg xmlns="http://www.w3.org/2000/svg" width="30" height="30" viewBox="0 0 30 30">
  <g id="_atout-parking" transform="translate(4445 7683)">
    <rect id="Rectangle_1371" data-name="Rectangle 1371" width="30" height="30" transform="translate(-4445 -7683)" fill="none"/>
    <g id="icone-parking" transform="translate(-4461.305 -8466.14)">
      <path id="Tracé_27948" data-name="Tracé 27948" d="M39.684,785.064l-16.759,0a1.7,1.7,0,0,0-1.7,1.7v16.758a1.7,1.7,0,0,0,1.7,1.7h6.386v4.987H27.677a.5.5,0,0,0-.314.869.493.493,0,0,0,.33.131H34.9a.5.5,0,0,0,0-1H33.3v-4.987h6.385a1.7,1.7,0,0,0,1.7-1.7V786.764A1.7,1.7,0,0,0,39.684,785.064ZM32.3,805.228v4.987H30.309v-4.987Zm8.086-18.459v16.76a.69.69,0,0,1-.2.491.7.7,0,0,1-.5.207H22.922a.69.69,0,0,1-.7-.7V786.762a.689.689,0,0,1,.628-.694H39.7A.7.7,0,0,1,40.388,786.769Z" fill="#00b28e"/>
      <path id="Tracé_27949" data-name="Tracé 27949" d="M37.665,793.431l-1.752-3.583-.053-.141h-.018a1.371,1.371,0,0,0-1.214-.748l-6.644,0a1.368,1.368,0,0,0-1.212.748l-1.807,3.7a.544.544,0,0,0-.043.083,2.346,2.346,0,0,0-.7,1.672v3.573a.5.5,0,0,0,.5.5h.7v1.6a.5.5,0,0,0,.5.5h2.395a.5.5,0,0,0,.5-.5v-1.6H33.8v1.6a.5.5,0,0,0,.5.5h2.4a.5.5,0,0,0,.5-.5v-1.6h.7a.5.5,0,0,0,.5-.5v-3.573a2.354,2.354,0,0,0-.7-1.687A.24.24,0,0,0,37.665,793.431ZM36.2,799.237v1.1H34.8v-1.1Zm-8.38,0v1.1h-1.4v-1.1Zm8.332-6.383H26.461c-.041,0-.081,0-.122,0l1.273-2.6.021-.047a.515.515,0,0,1,.351-.253l6.615,0a.52.52,0,0,1,.378.253l1.294,2.645C36.231,792.855,36.191,792.854,36.15,792.854Zm-9.688,1h9.686a1.271,1.271,0,0,1,1.245,1.314v3.074H25.221v-3.079A1.275,1.275,0,0,1,26.462,793.851Z" fill="#00b28e"/>
      <path id="Tracé_27950" data-name="Tracé 27950" d="M34.842,797.444h2.052v-2.8l-2.053,0h-.012a1.4,1.4,0,0,0-1.307,1.487A1.407,1.407,0,0,0,34.842,797.444Zm-.4-1.395a.4.4,0,0,1,.4-.4H35.9v.8H34.843a.4.4,0,0,1-.4-.4Z" fill="#00b28e"/>
      <path id="Tracé_27951" data-name="Tracé 27951" d="M27.784,797.443a1.4,1.4,0,0,0-.013-2.794H25.717v2.795h2.067Zm-1.067-.994v-.8h1.054a.4.4,0,0,1,.4.4.4.4,0,0,1-.4.4Z" fill="#00b28e"/>
    </g>
  </g>
</svg>
