<svg xmlns="http://www.w3.org/2000/svg" width="30" height="30" viewBox="0 0 30 30">
  <g id="_atout-tout-inclus" transform="translate(4445 7880)">
    <rect id="Rectangle_1373" data-name="Rectangle 1373" width="30" height="30" transform="translate(-4445 -7880)" fill="none"/>
    <g id="icone-tout-inclus" transform="translate(-4446.005 -7877.537)">
      <path id="Tracé_27960" data-name="Tracé 27960" d="M16.638.854l3,6.273,6.892.913A.558.558,0,0,1,26.841,9L21.8,13.79l1.261,6.838a.558.558,0,0,1-.814.592h0l-6.114-3.313L10.02,21.221a.559.559,0,0,1-.81-.618l1.257-6.812L5.427,9a.559.559,0,0,1,.334-.962l6.871-.911,3-6.273a.557.557,0,0,1,1.007,0Zm-9.529,13.4a.558.558,0,1,1,.434,1.029L4.956,16.377a.558.558,0,0,1-.433-1.029Zm3.5-9.8a.56.56,0,0,1-.792.792L7.827,3.256a.56.56,0,0,1,.792-.792ZM15.6,21.165a.558.558,0,0,1,1.116.013l-.042,2.808a.558.558,0,1,1-1.116-.013Zm9.129-5.881a.558.558,0,1,1,.434-1.029l2.586,1.094a.558.558,0,0,1-.433,1.029ZM22.455,5.242a.56.56,0,0,1-.792-.792l1.985-1.985a.56.56,0,0,1,.792.792L22.454,5.243ZM18.76,7.883,16.134,2.39,13.518,7.863a.559.559,0,0,1-.441.332L7.044,9l4.412,4.194a.557.557,0,0,1,.164.506l-1.1,5.986,5.345-2.9a.56.56,0,0,1,.538,0l5.353,2.9-1.1-5.964a.557.557,0,0,1,.16-.527L25.225,9l-6.033-.8a.56.56,0,0,1-.432-.313Z" transform="translate(0)" fill="#00b28e"/>
    </g>
  </g>
</svg>
