<svg xmlns="http://www.w3.org/2000/svg" width="30" height="30" viewBox="0 0 30 30">
  <g id="_atout-internet-inclus" transform="translate(4445 7803)">
    <rect id="Rectangle_1368" data-name="Rectangle 1368" width="30" height="30" transform="translate(-4445 -7803)" fill="none"/>
    <g id="icone-internet" transform="translate(-4446.227 -7801.65)">
      <path id="Tracé_27899" data-name="Tracé 27899" d="M27.173,11.732a15.481,15.481,0,0,0-21.895,0A.727.727,0,0,0,6.307,12.76a14.03,14.03,0,0,1,19.839,0,.727.727,0,0,0,1.028-1.028Z" fill="#00b28e"/>
      <path id="Tracé_27900" data-name="Tracé 27900" d="M24.152,17.651a.728.728,0,0,0,.514-1.241,10.693,10.693,0,0,0-15.106,0,.727.727,0,1,0,1.028,1.028,9.239,9.239,0,0,1,13.05,0,.727.727,0,0,0,.514.213Z" transform="translate(-0.895 -1.283)" fill="#00b28e"/>
      <path id="Tracé_27901" data-name="Tracé 27901" d="M14.289,21.53a.727.727,0,0,0,1.028,1.028,3.976,3.976,0,0,1,5.616,0,.727.727,0,1,0,1.028-1.028,5.432,5.432,0,0,0-7.672,0Z" transform="translate(-1.899 -2.686)" fill="#00b28e"/>
    </g>
  </g>
</svg>
